<svg version="1.1" id="Layer_1" xmlns="http://www.w3.org/2000/svg" xmlns:xlink="http://www.w3.org/1999/xlink" x="0px" y="0px"
	 width="100%" viewBox="0 0 508 505" enable-background="new 0 0 508 505" xml:space="preserve">
<path fill="#FFFFFF" opacity="1.000000" stroke="none" 
	d="
M238.000000,506.000000 
	C160.000015,506.000000 82.499992,505.971069 5.000210,506.096161 
	C1.575920,506.101685 0.903077,505.423828 0.905316,502.000000 
	C1.013632,336.333435 1.013625,170.666794 0.905349,5.000238 
	C0.903111,1.576925 1.575827,0.903085 4.999884,0.905309 
	C171.666428,1.013555 338.333069,1.013542 504.999634,0.905375 
	C508.422668,0.903153 509.096954,1.575446 509.094727,4.999763 
	C508.986359,170.666306 508.986359,336.332947 509.094604,501.999512 
	C509.096832,505.422272 508.425385,506.100525 505.000305,506.095856 
	C416.166992,505.974670 327.333466,506.000000 238.000000,506.000000 
z"/>
<path fill="#F9E6E6" opacity="1.000000" stroke="none" 
	d="
M127.840828,317.915070 
	C110.889572,324.736816 94.230682,331.280151 77.751183,338.247803 
	C61.890808,344.953644 45.977608,351.442932 29.359713,356.077667 
	C26.910505,356.760742 24.368359,357.714752 22.075026,356.656952 
	C19.369328,355.408905 20.418850,352.875214 20.797340,350.535614 
	C21.088486,348.735962 19.301445,347.621399 17.999807,346.667084 
	C14.927308,344.414581 15.662195,342.909973 18.541990,341.157959 
	C28.197855,335.283630 38.652454,330.971741 48.565479,325.621368 
	C60.250603,319.314545 72.501404,314.233765 84.521187,308.670593 
	C96.792274,302.991089 109.349861,297.896362 121.942093,292.953461 
	C138.415573,286.487030 154.850815,279.819672 171.665451,274.355591 
	C187.736862,269.133026 203.316132,262.590912 219.509186,257.663910 
	C230.120499,254.435242 241.039581,252.080368 251.345535,247.513046 
	C255.697571,245.584351 261.235992,245.482819 266.232208,244.346695 
	C274.701416,242.420746 282.845459,239.551346 290.787628,236.391495 
	C310.035675,228.733459 329.416748,221.429565 348.694000,213.857239 
	C362.886597,208.282211 377.392426,203.455154 391.361389,197.442032 
	C401.955688,192.881592 412.637787,188.375458 422.955414,182.806000 
	C416.757904,183.658997 410.580627,184.720932 404.358887,185.323929 
	C388.700470,186.841476 373.452179,190.760971 357.977509,193.332504 
	C347.300720,195.106720 336.582214,197.289215 325.972626,199.822433 
	C312.788391,202.970398 299.473450,205.602493 286.319214,208.940933 
	C263.680115,214.686569 241.000259,220.271439 218.352844,225.984619 
	C214.028168,227.075592 209.787872,228.497452 205.479980,229.660492 
	C204.132339,230.024338 202.009552,230.748337 201.659424,228.967010 
	C201.278763,227.030289 203.438339,227.008850 204.900925,227.021164 
	C209.523895,227.060043 213.148758,224.059692 217.368011,222.811264 
	C220.281815,221.949097 224.232574,223.136032 226.975906,218.572540 
	C220.878983,220.101212 215.667236,221.211075 210.574997,222.723373 
	C197.690964,226.549713 184.659653,230.017075 172.085754,234.698334 
	C164.791870,237.413834 157.263870,240.285873 150.034454,242.442184 
	C141.839096,244.886627 133.732559,248.113129 125.304794,249.923782 
	C120.209213,251.018539 115.656319,253.461182 110.815041,255.174362 
	C109.501518,255.639191 108.058861,256.275452 107.510544,254.461060 
	C107.043518,252.915649 108.692017,252.664169 109.670883,252.250977 
	C133.527252,242.180786 157.828918,233.315994 182.205139,224.575989 
	C199.800873,218.267105 217.658813,212.936142 235.423462,207.229172 
	C251.996796,201.904907 269.031952,198.479538 285.786316,193.936447 
	C295.050201,191.424469 304.660919,190.311310 313.758331,187.630386 
	C331.247864,182.476349 349.308655,180.389709 367.016327,176.521423 
	C382.921570,173.046890 399.212128,170.863235 415.444611,168.707520 
	C426.560638,167.231293 437.709503,165.790497 448.835571,164.295319 
	C452.930969,163.744949 457.146606,164.118195 461.305359,163.999100 
	C463.686890,163.930908 464.367584,165.552475 464.974457,167.365646 
	C465.769897,169.742264 465.819855,171.572281 464.463745,174.244156 
	C457.525543,187.913986 443.171600,190.113876 431.390900,195.786194 
	C410.008667,206.081573 387.755005,214.476456 365.584900,222.979858 
	C364.496796,223.397202 363.052948,223.695114 363.623474,225.226562 
	C364.031342,226.321396 365.305328,225.888107 366.276642,225.764175 
	C378.674347,224.182358 391.101654,222.952560 403.550964,221.800873 
	C418.647491,220.404266 433.713196,218.623032 448.863617,217.940323 
	C458.047607,217.526474 467.231384,216.052536 476.429382,217.078247 
	C482.330505,217.736328 487.561279,219.730667 489.841522,226.178787 
	C490.978577,229.394211 490.311737,231.893753 488.210693,234.269104 
	C486.212769,236.527847 483.649780,236.687042 481.456848,235.104523 
	C477.300049,232.104752 475.684662,236.833557 471.963196,237.716568 
	C475.366272,238.980957 478.241943,238.693329 480.993317,239.148956 
	C482.636108,239.420990 485.449432,238.851532 485.472137,241.773529 
	C485.492615,244.403015 483.322632,245.244690 481.151855,245.803848 
	C478.068848,246.597961 474.844025,245.948853 471.869080,245.748627 
	C457.664612,244.792679 443.559174,246.382797 429.487457,247.249893 
	C413.511108,248.234329 397.542786,250.013046 381.591156,251.670532 
	C368.270599,253.054626 354.947418,254.606720 341.677094,256.253021 
	C326.796173,258.099121 311.861847,259.931366 297.116058,262.931274 
	C280.720032,266.266846 264.179962,269.146637 248.222839,274.131866 
	C230.681900,279.611877 212.590958,283.323151 195.470001,290.074738 
	C174.592606,298.307770 154.022003,307.311371 132.991074,315.171600 
	C131.303452,315.802368 129.800446,316.927032 127.840828,317.915070 
z"/>
<path fill="#FAE9E9" opacity="1.000000" stroke="none" 
	d="
M198.512482,229.118362 
	C200.299988,232.629898 197.085724,232.397110 195.570023,232.832428 
	C188.813965,234.772888 181.703110,235.738586 175.230499,238.330261 
	C169.059769,240.801102 162.612289,242.097153 156.423431,244.324127 
	C155.505936,244.654282 154.610107,245.249756 152.437119,243.450623 
	C168.195587,238.489944 183.171555,233.775604 198.512482,229.118362 
z"/>
<path fill="#FEFBFB" opacity="1.000000" stroke="none" 
	d="
M244.259003,213.110535 
	C251.530731,211.383102 258.397858,209.730652 266.597809,207.757492 
	C262.231049,211.606415 233.561783,219.228851 229.340866,217.485107 
	C234.178711,216.051910 239.016556,214.618713 244.259003,213.110535 
z"/>
<path fill="#FEFCFC" opacity="1.000000" stroke="none" 
	d="
M122.356796,314.307037 
	C124.172722,313.472443 125.609314,312.530334 127.400177,313.455994 
	C123.487534,316.765961 114.869324,319.851562 110.933205,319.038940 
	C114.954216,317.385925 118.483948,315.934845 122.356796,314.307037 
z"/>
</svg>