<svg width="34" height="34" viewBox="0 0 34 34" fill="none" xmlns="http://www.w3.org/2000/svg">
<g filter="url(#filter0_d_1_1518)">
<rect x="4" width="26" height="26" rx="13" fill="#292526"/>
<path d="M19.96 7.06667C18.7533 7.06667 17.6733 7.65333 17 8.55333C16.3267 7.65333 15.2467 7.06667 14.04 7.06667C11.9933 7.06667 10.3333 8.73333 10.3333 10.7933C10.3333 11.5867 10.46 12.32 10.68 13C11.7333 16.3333 14.98 18.3267 16.5867 18.8733C16.8133 18.9533 17.1867 18.9533 17.4133 18.8733C19.02 18.3267 22.2667 16.3333 23.32 13C23.54 12.32 23.6667 11.5867 23.6667 10.7933C23.6667 8.73333 22.0067 7.06667 19.96 7.06667Z" fill="white"/>
</g>
<defs>
<filter id="filter0_d_1_1518" x="0" y="0" width="34" height="34" filterUnits="userSpaceOnUse" color-interpolation-filters="sRGB">
<feFlood flood-opacity="0" result="BackgroundImageFix"/>
<feColorMatrix in="SourceAlpha" type="matrix" values="0 0 0 0 0 0 0 0 0 0 0 0 0 0 0 0 0 0 127 0" result="hardAlpha"/>
<feOffset dy="4"/>
<feGaussianBlur stdDeviation="2"/>
<feComposite in2="hardAlpha" operator="out"/>
<feColorMatrix type="matrix" values="0 0 0 0 0 0 0 0 0 0 0 0 0 0 0 0 0 0 0.25 0"/>
<feBlend mode="normal" in2="BackgroundImageFix" result="effect1_dropShadow_1_1518"/>
<feBlend mode="normal" in="SourceGraphic" in2="effect1_dropShadow_1_1518" result="shape"/>
</filter>
</defs>
</svg>
