<svg width="24" height="24" viewBox="0 0 24 24" fill="none" xmlns="http://www.w3.org/2000/svg">
<path d="M7.49996 12C7.49996 11.337 7.64896 10.708 7.91096 10.138C8.11496 9.696 8.07996 9.16 7.73596 8.816L5.15996 6.24C4.74996 5.83 4.07396 5.852 3.74296 6.328C2.58566 7.99272 1.96714 9.97252 1.97096 12C1.97096 14.104 2.62097 16.058 3.73296 17.67C4.06297 18.147 4.74096 18.17 5.15196 17.76L7.73496 15.184C8.07896 14.84 8.11496 14.303 7.91096 13.861C7.64796 13.291 7.50096 12.662 7.50096 12H7.49996ZM12 7.5C12.664 7.5 13.294 7.648 13.864 7.91C14.305 8.114 14.842 8.08 15.185 7.736L17.735 5.186C18.144 4.777 18.123 4.103 17.649 3.771C15.9828 2.61144 13.9999 1.99309 11.97 2C9.86596 2 7.91896 2.65 6.30996 3.762C5.83196 4.092 5.80896 4.77 6.21996 5.182L8.77996 7.749C9.12596 8.095 9.66797 8.129 10.112 7.921C10.7027 7.64352 11.3473 7.49977 12 7.5ZM19.89 5.904C19.8475 5.85059 19.7942 5.80683 19.7335 5.77565C19.6729 5.74447 19.6062 5.72659 19.5381 5.72318C19.47 5.71977 19.4019 5.73093 19.3384 5.7559C19.2749 5.78087 19.2175 5.81908 19.17 5.868L15.951 9.078C15.8684 9.16423 15.8168 9.27538 15.8041 9.39406C15.7915 9.51275 15.8185 9.63229 15.881 9.734C16.2858 10.42 16.4993 11.202 16.4993 11.9985C16.4993 12.795 16.2858 13.577 15.881 14.263C15.8187 14.3646 15.7919 14.4839 15.8045 14.6024C15.8172 14.7209 15.8687 14.8318 15.951 14.918L19.17 18.138C19.2175 18.1869 19.2749 18.2251 19.3384 18.2501C19.4019 18.2751 19.47 18.2862 19.5381 18.2828C19.6062 18.2794 19.6729 18.2615 19.7335 18.2303C19.7942 18.1992 19.8475 18.1554 19.89 18.102C21.2421 16.3549 21.9739 14.2072 21.97 11.998C21.9741 9.7918 21.2421 7.64728 19.89 5.904V5.904ZM12 16.498C11.2032 16.4979 10.421 16.2842 9.73496 15.879C9.63326 15.8165 9.51372 15.7895 9.39503 15.8022C9.27634 15.8148 9.1652 15.8665 9.07897 15.949L5.82896 19.198C5.78011 19.2456 5.74197 19.3031 5.71708 19.3666C5.69219 19.4301 5.68113 19.4982 5.68463 19.5664C5.68813 19.6345 5.70612 19.7011 5.73738 19.7617C5.76865 19.8224 5.81249 19.8756 5.86597 19.918C7.61282 21.2699 9.76008 22.0017 11.969 21.998C14.1815 22.0058 16.3326 21.2701 18.077 19.909C18.1301 19.8664 18.1735 19.813 18.2044 19.7524C18.2353 19.6917 18.253 19.6252 18.2562 19.5572C18.2594 19.4892 18.2481 19.4213 18.2231 19.358C18.198 19.2947 18.1598 19.2374 18.111 19.19L14.886 15.966C14.8003 15.8847 14.6903 15.8338 14.5729 15.8209C14.4555 15.8081 14.3372 15.8341 14.236 15.895C13.5565 16.2896 12.7847 16.4976 11.999 16.498H12Z" fill="white"/>
</svg>
