<svg width="24" height="24" viewBox="0 0 24 24" fill="none" xmlns="http://www.w3.org/2000/svg">
<path d="M16.44 3.102C14.63 3.102 13.01 3.982 12 5.332C11.4841 4.64081 10.8143 4.07939 10.0435 3.69229C9.27281 3.3052 8.42247 3.10308 7.56 3.102C4.49 3.102 2 5.602 2 8.692C2 9.882 2.19 10.982 2.52 12.002C4.1 17.002 8.97 19.992 11.38 20.812C11.72 20.932 12.28 20.932 12.62 20.812C15.03 19.992 19.9 17.002 21.48 12.002C21.81 10.982 22 9.882 22 8.692C22 5.602 19.51 3.102 16.44 3.102V3.102Z" fill="white"/>
</svg>
