<svg width="24" height="24" viewBox="0 0 24 24" fill="none" xmlns="http://www.w3.org/2000/svg">
<path d="M11.97 22C17.493 22 21.97 17.523 21.97 12C21.97 6.477 17.493 2 11.97 2C6.44697 2 1.96997 6.477 1.96997 12C1.96997 17.523 6.44697 22 11.97 22V22Z" stroke="white" stroke-width="1.5" stroke-linecap="round" stroke-linejoin="round"/>
<path d="M4.90002 4.93L8.44002 8.46M4.90002 19.07L8.44002 15.54M19.05 19.07L15.51 15.54M19.05 4.93L15.51 8.46M12 16.5C13.1935 16.5 14.3381 16.0259 15.182 15.182C16.0259 14.3381 16.5 13.1935 16.5 12C16.5 10.8065 16.0259 9.66193 15.182 8.81802C14.3381 7.97411 13.1935 7.5 12 7.5C10.8066 7.5 9.66196 7.97411 8.81804 8.81802C7.97413 9.66193 7.50002 10.8065 7.50002 12C7.50002 13.1935 7.97413 14.3381 8.81804 15.182C9.66196 16.0259 10.8066 16.5 12 16.5V16.5Z" stroke="white" stroke-width="1.5" stroke-linecap="round" stroke-linejoin="round"/>
</svg>
