<?xml version="1.0" encoding="utf-8"?>
<svg version="1.0" fill="#fff" width="512.000000pt" height="512.000000pt" viewBox="0 0 512.000000 512.000000" preserveAspectRatio="xMidYMid meet" xmlns="http://www.w3.org/2000/svg">
  <g transform="translate(0.000000,512.000000) scale(0.100000,-0.100000)" fill="#000000" stroke="none">
    <path d="M1973 3623 c-11 -10 -46 -51 -78 -91 -167 -210 -388 -352 -633 -408 -255 -57 -535 -12 -825 136 -61 31 -125 60 -142 64 -67 17 -125 86 -125 150 0 14 -11 37 -24 52 -33 40 -89 39 -123 -1 -22 -25 -25 -36 -20 -81 3 -28 15 -74 27 -102 23 -53 98 -132 145 -154 14 -6 25 -15 25 -19 0 -18 -132 -688 -161 -819 -32 -142 -33 -150 -36 -434 -4 -324 -4 -327 64 -345 21 -6 281 -15 578 -21 297 -6 1040 -24 1650 -40 1481 -40 1616 -39 1925 15 343 59 675 196 796 327 81 88 117 209 96 327 -17 101 -114 320 -168 380 -129 143 -439 221 -880 221 l-187 0 -193 91 -194 92 6 38 c6 33 3 42 -24 69 -39 38 -72 38 -116 0 l-34 -30 -90 42 c-79 37 -90 46 -84 63 13 41 5 78 -22 102 -40 34 -82 30 -120 -11 l-31 -33 -91 44 -92 45 13 26 c28 56 -15 122 -78 122 -21 0 -39 -10 -64 -36 l-34 -37 -87 42 c-66 31 -86 46 -84 59 15 76 14 91 -12 116 -39 40 -81 35 -126 -14 l-37 -40 -117 55 c-123 58 -162 66 -193 38z m190 -225 c23 -11 35 -23 31 -30 -87 -140 -144 -247 -144 -268 0 -43 35 -80 76 -80 20 0 43 4 53 10 10 5 53 68 96 140 42 71 82 130 87 130 5 0 49 -18 98 -41 l88 -41 -75 -124 c-86 -144 -96 -178 -61 -218 18 -21 33 -28 61 -28 21 0 44 6 53 12 8 7 51 73 95 146 44 74 82 134 84 134 6 0 178 -80 183 -85 2 -2 -31 -61 -73 -132 -42 -70 -79 -141 -82 -158 -11 -69 84 -118 136 -71 11 10 55 76 97 147 42 71 79 131 83 133 3 2 48 -15 98 -39 l93 -43 -85 -143 c-47 -78 -85 -148 -85 -156 0 -8 7 -27 15 -44 28 -53 92 -60 133 -16 11 12 56 81 99 154 l79 131 179 -84 c99 -47 181 -86 182 -88 4 -3 -75 -487 -80 -492 -2 -2 -188 -8 -413 -14 -516 -12 -1471 4 -2034 35 -417 22 -999 57 -1016 60 -20 4 -19 15 64 432 46 236 85 429 87 431 1 1 42 -15 91 -36 115 -50 196 -77 319 -104 134 -29 378 -31 505 -4 274 59 541 218 714 425 l57 69 37 -15 c20 -8 54 -24 75 -35z m2282 -812 c135 -23 202 -43 282 -81 78 -38 123 -83 123 -121 0 -63 -216 -137 -520 -178 -142 -19 -462 -47 -469 -41 -4 5 56 407 65 434 4 12 40 13 217 8 116 -3 253 -13 302 -21z m500 -464 c0 -122 -50 -179 -240 -272 -168 -83 -348 -134 -605 -171 -226 -33 -519 -34 -1575 -5 -1141 31 -2158 56 -2272 56 l-83 0 0 169 0 170 32 -5 c92 -12 941 -57 1503 -81 751 -31 1780 -23 2265 18 429 36 791 109 916 184 26 16 42 20 49 14 5 -5 10 -40 10 -77z" style="fill: rgb(255, 255, 255);"/>
    <path d="M645 2778 c-69 -40 -55 -137 23 -154 118 -25 192 -69 192 -112 0 -26 45 -62 77 -62 39 0 63 19 83 64 22 53 64 80 151 100 105 25 139 87 80 147 -21 20 -39 29 -63 29 -51 0 -131 -25 -195 -60 l-58 -32 -50 31 c-51 31 -148 61 -195 61 -14 0 -34 -6 -45 -12z" style="fill: rgb(255, 255, 255);"/>
  </g>
</svg>