<?xml version="1.0" encoding="utf-8"?>
<svg version="1.0" width="512.000000pt" height="512.000000pt" viewBox="0 0 512.000000 512.000000" preserveAspectRatio="xMidYMid meet" xmlns="http://www.w3.org/2000/svg">
  <g transform="translate(0.000000,512.000000) scale(0.100000,-0.100000)" fill="#000000" stroke="none">
    <path d="M1153 4627 c-389 -195 -675 -344 -693 -362 -118 -112 -213 -339 -259 -616 -34 -205 -41 -357 -41 -911 l0 -529 25 -24 24 -25 376 0 375 0 0 -975 0 -976 25 -24 24 -25 1551 0 1551 0 24 25 25 24 0 976 0 975 375 0 376 0 24 25 25 24 0 529 c0 554 -7 706 -41 911 -47 283 -147 517 -265 620 -19 18 -332 180 -695 361 l-659 330 -742 -1 -743 0 -662 -332z m2043 122 c-20 -153 -114 -283 -254 -353 -108 -55 -190 -69 -382 -69 -147 0 -187 3 -252 21 -226 62 -352 195 -383 406 l-7 46 642 0 643 0 -7 -51z m-1416 -85 c87 -342 386 -521 835 -501 313 14 518 113 647 312 34 51 73 158 93 248 l5 27 73 -36 c39 -20 73 -37 74 -38 9 -8 -46 -166 -83 -238 -110 -212 -307 -350 -584 -411 -136 -30 -424 -30 -560 0 -277 61 -474 199 -584 411 -37 72 -92 230 -83 238 7 6 142 72 144 70 2 -2 12 -38 23 -82z m-301 -117 c6 -29 34 -99 61 -154 137 -280 370 -451 712 -525 87 -18 134 -22 308 -22 174 0 221 4 308 22 266 58 472 178 609 357 61 79 146 245 164 320 7 28 13 51 14 53 2 2 170 -81 375 -183 l372 -186 -24 -27 c-155 -167 -275 -548 -332 -1052 -37 -319 -39 -404 -43 -1617 l-4 -1213 -1440 0 -1439 0 0 1083 c0 1266 -8 1500 -65 1892 -62 427 -176 759 -313 907 l-24 27 368 185 c203 102 372 185 375 185 3 1 11 -23 18 -52z m-894 -413 c26 -10 102 -125 146 -220 65 -141 127 -374 163 -619 32 -215 66 -673 66 -896 l0 -79 -321 0 -321 0 5 553 c3 442 8 575 21 665 37 255 99 441 185 560 34 46 32 45 56 36z m4006 -36 c88 -122 145 -296 186 -568 12 -82 17 -226 20 -657 l5 -553 -323 0 -322 0 7 213 c25 768 128 1276 311 1532 41 58 56 72 77 74 5 1 22 -18 39 -41z" style="fill: rgb(255, 255, 255);"/>
  </g>
</svg>